<svg width="16" height="16" viewBox="0 0 16 16" fill="none" xmlns="http://www.w3.org/2000/svg">
<path d="M8.0162 1.06665C6.64171 1.06665 5.29809 1.47423 4.15524 2.23786C3.01239 3.00149 2.12165 4.08686 1.59566 5.35672C1.06966 6.62658 0.932037 8.02391 1.20019 9.37199C1.46834 10.7201 2.13022 11.9584 3.10213 12.9303C4.07404 13.9022 5.31233 14.5641 6.66041 14.8322C8.00849 15.1004 9.40581 14.9627 10.6757 14.4367C11.9455 13.9107 13.0309 13.02 13.7945 11.8772C14.5582 10.7343 14.9657 9.39069 14.9657 8.0162C14.9637 6.17369 14.2309 4.40722 12.928 3.10437C11.6252 1.80152 9.85871 1.06868 8.0162 1.06665ZM8.0162 13.8615C6.8601 13.8615 5.72997 13.5187 4.76871 12.8764C3.80745 12.2341 3.05824 11.3212 2.61582 10.2531C2.1734 9.18501 2.05764 8.00971 2.28318 6.87583C2.50873 5.74195 3.06544 4.70041 3.88292 3.88292C4.70041 3.06544 5.74195 2.50872 6.87583 2.28318C8.00972 2.05764 9.18502 2.17339 10.2531 2.61581C11.3212 3.05823 12.2341 3.80744 12.8764 4.7687C13.5187 5.72996 13.8615 6.8601 13.8615 8.0162C13.8615 8.78382 13.7103 9.54392 13.4166 10.2531C13.1228 10.9623 12.6923 11.6067 12.1495 12.1495C11.6067 12.6923 10.9623 13.1228 10.2531 13.4166C9.54392 13.7103 8.78382 13.8615 8.0162 13.8615Z" fill="#222222"/>
<path d="M10.7042 8.52815H5.32816C5.19237 8.52815 5.06214 8.47421 4.96612 8.37819C4.8701 8.28217 4.81616 8.15194 4.81616 8.01615C4.81616 7.88036 4.8701 7.75013 4.96612 7.65411C5.06214 7.55809 5.19237 7.50415 5.32816 7.50415H10.7042C10.84 7.50415 10.9702 7.55809 11.0662 7.65411C11.1622 7.75013 11.2162 7.88036 11.2162 8.01615C11.2162 8.15194 11.1622 8.28217 11.0662 8.37819C10.9702 8.47421 10.84 8.52815 10.7042 8.52815Z" fill="#222222"/>
<path d="M8.01615 11.2162C7.88036 11.2162 7.75013 11.1622 7.65411 11.0662C7.55809 10.9702 7.50415 10.84 7.50415 10.7042V5.32816C7.50415 5.19237 7.55809 5.06214 7.65411 4.96612C7.75013 4.8701 7.88036 4.81616 8.01615 4.81616C8.15194 4.81616 8.28217 4.8701 8.37819 4.96612C8.47421 5.06214 8.52815 5.19237 8.52815 5.32816V10.7042C8.52815 10.84 8.47421 10.9702 8.37819 11.0662C8.28217 11.1622 8.15194 11.2162 8.01615 11.2162Z" fill="#222222"/>
</svg>
