<svg width="24" height="24" viewBox="0 0 24 24" fill="none" xmlns="http://www.w3.org/2000/svg">
<g clip-path="url(#clip0_1112_495)">
<path d="M0 0H24V24H0V0Z" fill="#222222" fill-opacity="0.01"/>
<path d="M12.8572 0.495413L21.5349 5.50455C21.7955 5.65501 22.0119 5.87141 22.1624 6.13201C22.3128 6.3926 22.392 6.68821 22.392 6.98913V17.0108C22.392 17.3118 22.3128 17.6074 22.1624 17.868C22.0119 18.1286 21.7955 18.345 21.5349 18.4954L12.8572 23.5028C12.5966 23.6533 12.301 23.7325 12 23.7325C11.6991 23.7325 11.4035 23.6533 11.1429 23.5028L2.46518 18.4971C2.20458 18.3467 1.98817 18.1303 1.83771 17.8697C1.68725 17.6091 1.60804 17.3135 1.60803 17.0126V6.98913C1.60804 6.68821 1.68725 6.3926 1.83771 6.13201C1.98817 5.87141 2.20458 5.65501 2.46518 5.50455L11.1429 0.497127C11.4035 0.346667 11.6991 0.267456 12 0.267456C12.301 0.267456 12.5966 0.346667 12.8572 0.497127V0.495413ZM10.4949 16.0714C10.3823 16.0714 10.2708 16.0935 10.1668 16.1366C10.0628 16.1797 9.96831 16.2428 9.88871 16.3224C9.8091 16.402 9.74595 16.4965 9.70287 16.6005C9.65978 16.7045 9.63761 16.816 9.63761 16.9286C9.63761 17.0411 9.65978 17.1526 9.70287 17.2566C9.74595 17.3606 9.8091 17.4551 9.88871 17.5347C9.96831 17.6143 10.0628 17.6774 10.1668 17.7205C10.2708 17.7636 10.3823 17.7857 10.4949 17.7857C10.7222 17.7857 10.9402 17.6953 11.1009 17.5346C11.2616 17.3739 11.3519 17.1559 11.3519 16.9286C11.3519 16.7012 11.2616 16.4833 11.1009 16.3225C10.9402 16.1618 10.7222 16.0714 10.4949 16.0714ZM12 5.99998C10.6928 5.99982 9.4213 6.42632 8.37859 7.21469C7.33589 8.00306 6.57899 9.11022 6.22289 10.368L5.9606 9.85027L5.87832 9.71827C5.74843 9.54859 5.55985 9.43354 5.34954 9.39568C5.13924 9.35782 4.92237 9.39988 4.74147 9.51362C4.56056 9.62735 4.42867 9.80456 4.37164 10.0105C4.3146 10.2164 4.33655 10.4362 4.43318 10.6268L5.49089 12.7028L5.58346 12.8571C5.75068 13.0906 5.99607 13.2563 6.27508 13.3243C6.55408 13.3922 6.8482 13.3578 7.10403 13.2274L9.14403 12.1886L9.27603 12.1063C9.44572 11.9764 9.56076 11.7878 9.59862 11.5775C9.63648 11.3672 9.59442 11.1503 9.48068 10.9694C9.36695 10.7885 9.18974 10.6566 8.9838 10.5996C8.77787 10.5426 8.55806 10.5645 8.36746 10.6611L7.85146 10.9217C8.03336 10.2208 8.3898 9.57749 8.88752 9.05161C9.38525 8.52573 10.008 8.13448 10.6978 7.91433C11.3876 7.69419 12.1219 7.65232 12.8323 7.79264C13.5426 7.93297 14.2059 8.2509 14.7601 8.7168C15.3144 9.1827 15.7416 9.78139 16.002 10.457C16.2624 11.1327 16.3474 11.8632 16.2492 12.5806C16.1509 13.298 15.8726 13.9788 15.4401 14.5595C15.0077 15.1402 14.4352 15.602 13.776 15.9017C13.6732 15.948 13.5429 15.996 13.3869 16.044C13.1535 16.1164 12.9567 16.2754 12.8368 16.4884C12.717 16.7013 12.6832 16.952 12.7423 17.1891C12.7693 17.2882 12.8156 17.381 12.8784 17.4621C12.9413 17.5433 13.0195 17.6113 13.1087 17.6623C13.1978 17.7132 13.2961 17.7461 13.398 17.759C13.4999 17.772 13.6033 17.7647 13.7023 17.7377C13.9646 17.6657 14.1772 17.5954 14.34 17.5268C15.614 16.9864 16.662 16.0224 17.3068 14.7979C17.9515 13.5735 18.1533 12.1638 17.878 10.8077C17.6027 9.45152 16.8672 8.23215 15.796 7.35603C14.7249 6.47991 13.3839 6.00086 12 5.99998ZM7.89775 14.4308C7.67042 14.4308 7.4524 14.5211 7.29166 14.6819C7.13091 14.8426 7.0406 15.0607 7.0406 15.288C7.0406 15.5153 7.13091 15.7333 7.29166 15.8941C7.4524 16.0548 7.67042 16.1451 7.89775 16.1451C8.12508 16.1451 8.34309 16.0548 8.50384 15.8941C8.66458 15.7333 8.75489 15.5153 8.75489 15.288C8.75489 15.0607 8.66458 14.8426 8.50384 14.6819C8.34309 14.5211 8.12508 14.4308 7.89775 14.4308Z" fill="#222222"/>
</g>
<defs>
<clipPath id="clip0_1112_495">
<rect width="24" height="24" fill="white"/>
</clipPath>
</defs>
</svg>
