<svg width="40" height="40" viewBox="0 0 40 40" fill="none" xmlns="http://www.w3.org/2000/svg">
<rect x="1.75" y="1.75" width="36.5" height="36.5" rx="6.25" fill="white"/>
<path d="M23.0697 21.6377L21.6148 23.0926C21.3203 23.3896 21.3203 23.8721 21.6148 24.1691C21.9119 24.4662 22.3943 24.4662 22.6914 24.1691L25.5174 21.3432C25.5326 21.3305 25.5453 21.3178 25.5605 21.3051C25.7078 21.1578 25.784 20.9623 25.7814 20.7643C25.7814 20.5687 25.7078 20.3732 25.5605 20.2234C25.5479 20.2107 25.5326 20.1955 25.5174 20.1854L22.6939 17.3568C22.3969 17.0598 21.9145 17.0598 21.6174 17.3568C21.3229 17.6539 21.3229 18.1363 21.6174 18.4334L23.2982 20.1168H19.5074C16.6814 20.1168 13.9977 21.2035 11.9512 23.1764C9.90977 25.1416 8.72402 27.7746 8.6123 30.5854C8.59453 31.0068 8.92207 31.3598 9.34355 31.3775H9.37402C9.78027 31.3775 10.118 31.0551 10.1357 30.6463C10.2322 28.2291 11.2529 25.9668 13.01 24.2732C14.7721 22.5746 17.0801 21.6402 19.51 21.6402H23.0697V21.6377Z" fill="#570DF8"/>
<path d="M29.9455 8.63013H11.6516C10.8746 8.63013 10.2373 9.31567 10.2373 10.1536V17.1995C10.2373 17.5879 10.5547 17.9079 10.9457 17.9079C11.3342 17.9079 11.6541 17.5905 11.6541 17.1995V10.1536H29.948V29.8465L22.0668 29.8491C22.0516 29.8491 22.0363 29.8465 22.0211 29.8465H18.2354C17.8164 29.8465 17.4736 30.1893 17.4736 30.6083C17.4736 31.0272 17.8164 31.37 18.2354 31.37H29.943C30.7199 31.37 31.3572 30.6844 31.3572 29.8465V10.1536C31.3598 9.31567 30.725 8.63013 29.9455 8.63013Z" fill="#570DF8"/>
<path d="M23.8336 23.5117L22.4906 24.8547C22.2188 25.1289 22.2188 25.5742 22.4906 25.8484C22.7648 26.1227 23.2102 26.1227 23.4844 25.8484L26.093 23.2398C26.107 23.2281 26.1188 23.2164 26.1328 23.2047C26.2688 23.0688 26.3391 22.8883 26.3367 22.7055C26.3367 22.525 26.2688 22.3445 26.1328 22.2062C26.1211 22.1945 26.107 22.1805 26.093 22.1711L23.4867 19.5602C23.2125 19.2859 22.7672 19.2859 22.493 19.5602C22.2211 19.8344 22.2211 20.2797 22.493 20.5539L24.0445 22.1078H20.5453C17.9367 22.1078 15.4594 23.1109 13.5703 24.932C11.6859 26.7461 10.5914 29.1766 10.4883 31.7711C10.4719 32.1602 10.7742 32.4859 11.1633 32.5023H11.1914C11.5664 32.5023 11.8781 32.2047 11.8945 31.8273C11.9836 29.5961 12.9258 27.5078 14.5477 25.9445C16.1742 24.3766 18.3047 23.5141 20.5477 23.5141H23.8336V23.5117Z" fill="#570DF8" fill-opacity="0.25"/>
<path d="M30.1805 11.5046H13.2937C12.5766 11.5046 11.9883 12.1375 11.9883 12.9109V19.4148C11.9883 19.7734 12.2812 20.0687 12.6422 20.0687C13.0008 20.0687 13.2961 19.7757 13.2961 19.4148V12.9109H30.1828V31.089L22.9078 31.0914C22.8938 31.0914 22.8797 31.089 22.8656 31.089H19.3711C18.9844 31.089 18.668 31.4054 18.668 31.7921C18.668 32.1789 18.9844 32.4953 19.3711 32.4953H30.1781C30.8953 32.4953 31.4836 31.8625 31.4836 31.089V12.9109C31.4859 12.1375 30.9 11.5046 30.1805 11.5046Z" fill="#570DF8" fill-opacity="0.25"/>
<rect x="1.75" y="1.75" width="36.5" height="36.5" rx="6.25" stroke="#570DF8" stroke-width="3.5"/>
</svg>
