<svg width="32" height="32" viewBox="0 0 32 32" fill="none" xmlns="http://www.w3.org/2000/svg">
<path d="M21.5907 23.0002H6.5376C4.8876 23.0002 3.51573 21.6814 3.5001 20.0314C3.48448 18.3627 4.83448 17.0002 6.5001 17.0002H24.5001C25.8282 17.0002 27.0813 16.4783 28.0313 15.5314C28.9782 14.5846 29.5001 13.3314 29.5001 12.0002C29.5001 10.6689 28.9782 9.41894 28.0313 8.46894C27.0845 7.52206 25.8282 7.00019 24.5001 7.00019H8.24385C8.03448 7.00019 7.84385 6.86894 7.7751 6.66894C7.23448 5.13456 5.7876 4.03144 4.0751 4.00019C1.85635 3.95956 0.0157261 5.75331 0.000101135 7.97206C-0.0155239 10.1939 1.78135 12.0002 4.0001 12.0002C5.74073 12.0002 7.22198 10.8877 7.77198 9.33456C7.84385 9.13456 8.03135 9.00019 8.24385 9.00019H24.4626C26.1126 9.00019 27.4845 10.3189 27.5001 11.9689C27.5157 13.6377 26.1657 15.0002 24.5001 15.0002H6.5001C5.17198 15.0002 3.91885 15.5221 2.96885 16.4689C2.02198 17.4158 1.5001 18.6721 1.5001 20.0002C1.5001 21.3283 2.02198 22.5814 2.96885 23.5314C3.91573 24.4783 5.17198 25.0002 6.5001 25.0002H21.5907C21.8657 25.0002 22.0907 25.2252 22.0907 25.5002V27.7721C22.0907 27.8689 22.1938 27.9283 22.2782 27.8814L28.8126 24.1096C28.897 24.0627 28.897 23.9408 28.8126 23.8939L22.2782 20.1189C22.1938 20.0721 22.0907 20.1314 22.0907 20.2283V22.5002C22.0907 22.7752 21.8688 23.0002 21.5907 23.0002ZM4.0001 10.0002C2.89698 10.0002 2.0001 9.10331 2.0001 8.00019C2.0001 6.89706 2.89698 6.00019 4.0001 6.00019C5.10323 6.00019 6.0001 6.89706 6.0001 8.00019C6.0001 9.10331 5.10323 10.0002 4.0001 10.0002Z" fill="#818181"/>
</svg>
