<svg width="32" height="32" viewBox="0 0 32 32" fill="none" xmlns="http://www.w3.org/2000/svg">
<path d="M0 7C0 3.13401 3.13401 0 7 0H25C28.866 0 32 3.13401 32 7V25C32 28.866 28.866 32 25 32H7C3.13401 32 0 28.866 0 25V7Z" fill="#16A199"/>
<path d="M15.7965 9.12C17.1298 9.12 18.1765 9.28 18.9365 9.6C19.6965 9.90667 20.2365 10.3867 20.5565 11.04C20.8765 11.6933 21.0365 12.5667 21.0365 13.66C21.0365 14.7933 20.8565 15.7 20.4965 16.38C20.1498 17.06 19.5898 17.5533 18.8165 17.86C18.0565 18.1667 17.0498 18.32 15.7965 18.32H13.8765V23H11.6365V9.12H15.7965ZM15.5565 16.46C16.3832 16.46 17.0165 16.38 17.4565 16.22C17.9098 16.0467 18.2365 15.7667 18.4365 15.38C18.6365 14.98 18.7365 14.4133 18.7365 13.68C18.7365 13 18.6365 12.4667 18.4365 12.08C18.2365 11.6933 17.9032 11.4133 17.4365 11.24C16.9832 11.0667 16.3565 10.98 15.5565 10.98H13.8765V16.46H15.5565Z" fill="white"/>
</svg>
