<svg width="10" height="120" viewBox="0 0 10 120" fill="none" xmlns="http://www.w3.org/2000/svg">
<path d="M5.84891e-06 109.362L5.85756e-06 108.636L10 108.636L10 119.516C10 119.275 9.89797 118.549 9.28571 117.582C8.21429 115.89 7.32043 115.357 4.28572 113.714C0.714292 111.779 5.84026e-06 110.087 5.84891e-06 109.362Z" fill="#570DF8"/>
<path d="M5.59519e-06 10.6383L5.58654e-06 11.3636L10 11.3636L10 0.483559C10 0.725339 9.89797 1.45068 9.28571 2.4178C8.21429 4.11025 7.32042 4.64271 4.28572 6.28627C0.714291 8.22051 5.60383e-06 9.91296 5.59519e-06 10.6383Z" fill="#570DF8"/>
<rect width="97.2727" height="9.99999" transform="matrix(1.19249e-08 -1 -1 -1.19249e-08 10 108.636)" fill="#570DF8"/>
</svg>
