<svg width="24" height="24" viewBox="0 0 24 24" fill="none" xmlns="http://www.w3.org/2000/svg">
<path d="M15.7333 5.26668C15.7333 5.5731 15.7954 5.87652 15.916 6.15961C16.0366 6.4427 16.2134 6.69993 16.4362 6.9166C16.6591 7.13327 16.9237 7.30514 17.2148 7.4224C17.506 7.53966 17.8181 7.60002 18.1333 7.60002C18.4484 7.60002 18.7605 7.53966 19.0517 7.4224C19.3429 7.30514 19.6075 7.13327 19.8303 6.9166C20.0532 6.69993 20.23 6.4427 20.3506 6.15961C20.4712 5.87652 20.5333 5.5731 20.5333 5.26668C20.5333 4.96026 20.4712 4.65685 20.3506 4.37375C20.23 4.09066 20.0532 3.83344 19.8303 3.61677C19.6075 3.4001 19.3429 3.22823 19.0517 3.11096C18.7605 2.9937 18.4484 2.93335 18.1333 2.93335C17.8181 2.93335 17.506 2.9937 17.2148 3.11096C16.9237 3.22823 16.6591 3.4001 16.4362 3.61677C16.2134 3.83344 16.0366 4.09066 15.916 4.37375C15.7954 4.65685 15.7333 4.96026 15.7333 5.26668Z" fill="#82D2F7"/>
<path d="M10.6951 8.82429L14.7564 16.947C14.9804 17.395 15.0862 17.8929 15.0637 18.3933C15.0412 18.8937 14.8911 19.3801 14.6278 19.8062C14.3644 20.2323 13.9965 20.584 13.559 20.8279C13.1215 21.0719 12.6289 21.1999 12.128 21.2H4.0053C3.50438 21.1999 3.01178 21.0719 2.57428 20.8279C2.13677 20.584 1.76888 20.2323 1.50554 19.8062C1.24219 19.3801 1.09214 18.8937 1.06962 18.3933C1.0471 17.8929 1.15287 17.395 1.37688 16.947L5.43823 8.82429C5.68232 8.33619 6.0575 7.9257 6.52173 7.6388C6.98597 7.35191 7.52092 7.19995 8.06665 7.19995C8.61238 7.19995 9.14733 7.35191 9.61157 7.6388C10.0758 7.9257 10.451 8.33619 10.6951 8.82429Z" fill="#046EA7"/>
<path d="M19.759 12.6968L22.7492 18.6769C22.8821 18.9427 22.9449 19.238 22.9316 19.5349C22.9183 19.8318 22.8293 20.1203 22.6731 20.3731C22.5169 20.6259 22.2986 20.8346 22.0391 20.9793C21.7796 21.1241 21.4873 21.2001 21.1902 21.2001H15.2098C14.9127 21.2001 14.6204 21.1241 14.3609 20.9793C14.1014 20.8346 13.8831 20.6259 13.7269 20.3731C13.5707 20.1203 13.4818 19.8318 13.4684 19.5349C13.4551 19.238 13.5179 18.9427 13.6508 18.6769L16.641 12.6968C16.7858 12.4073 17.0084 12.1638 17.2837 11.9937C17.5591 11.8235 17.8763 11.7334 18.2 11.7334C18.5237 11.7334 18.841 11.8235 19.1163 11.9937C19.3917 12.1638 19.6142 12.4073 19.759 12.6968Z" fill="#FCCF0A"/>
</svg>
