<svg width="30" height="30" viewBox="0 0 30 30" fill="none" xmlns="http://www.w3.org/2000/svg">
<path d="M15 0C6.71571 0 0 6.71571 0 15C0 23.2843 6.71571 30 15 30C23.2843 30 30 23.2843 30 15C30 6.71571 23.2843 0 15 0ZM15 27.8571C13.2633 27.8571 11.5798 27.5175 9.99606 26.8477C8.79033 26.3377 7.68167 25.6533 6.68762 24.8087C7.09533 23.7378 8.10144 22.67 9.50759 21.832C11.1447 20.8564 13.1548 20.2968 15.0223 20.2968C16.885 20.2968 18.8867 20.8545 20.5143 21.827C21.9126 22.6625 22.9146 23.7292 23.3222 24.8004C22.3256 25.6489 21.2136 26.336 20.0039 26.8477C18.4202 27.5175 16.7367 27.8571 15 27.8571ZM24.9197 23.1811C24.2335 21.9778 23.0998 20.8757 21.6134 19.9875C19.6345 18.8051 17.2937 18.1539 15.0223 18.1539C12.7468 18.1539 10.3986 18.8064 8.41058 19.9913C6.9158 20.8821 5.77701 21.9866 5.08932 23.1917C4.29127 22.2289 3.64175 21.1609 3.15238 20.0039C2.48253 18.4202 2.14289 16.7366 2.14289 15C2.14289 13.2633 2.48253 11.5798 3.15238 9.99603C3.79982 8.46526 4.72718 7.09004 5.90866 5.90859C7.09011 4.72711 8.46532 3.79979 9.99609 3.15231C11.5798 2.48247 13.2634 2.14282 15 2.14282C16.7367 2.14282 18.4202 2.48247 20.004 3.15231C21.5347 3.79975 22.91 4.72711 24.0914 5.90859C25.2729 7.09004 26.2002 8.46526 26.8477 9.99603C27.5175 11.5797 27.8572 13.2633 27.8572 15C27.8572 16.7366 27.5175 18.4202 26.8477 20.0039C26.3601 21.1567 25.7137 22.2211 24.9197 23.1811Z" fill="#686777"/>
<path d="M15 5C12.243 5 10 7.4673 10 10.5C10 13.5327 12.243 16 15 16C17.757 16 20 13.5327 20 10.5C20 7.46727 17.757 5 15 5ZM15 13.8C13.3458 13.8 12 12.3196 12 10.5C12 8.68036 13.3458 7.2 15 7.2C16.6542 7.2 18 8.68036 18 10.5C18 12.3196 16.6542 13.8 15 13.8Z" fill="#686777"/>
</svg>
