<svg width="14" height="14" viewBox="0 0 14 14" fill="none" xmlns="http://www.w3.org/2000/svg">
<g clip-path="url(#clip0_471_17391)">
<path d="M6.58408 13.2459L4.42517 11.0817H1.16783C1.01441 11.082 0.862444 11.0519 0.720652 10.9933C0.57886 10.9347 0.450027 10.8487 0.341538 10.7402C0.233049 10.6317 0.147036 10.5029 0.088428 10.3611C0.0298205 10.2193 -0.000229113 10.0673 1.31525e-06 9.91391L0.00583465 1.75075C0.00583465 1.10441 0.525001 0.583496 1.17367 0.583496H12.8328C13.4779 0.583496 14.0006 1.10441 14 1.75133L13.9942 9.91508C13.9942 10.5597 13.4715 11.0817 12.8269 11.0817H9.576L7.40833 13.2459C7.35422 13.3 7.28997 13.343 7.21926 13.3723C7.14854 13.4016 7.07275 13.4167 6.99621 13.4167C6.91967 13.4167 6.84388 13.4016 6.77316 13.3723C6.70245 13.343 6.6382 13.3 6.58408 13.2459ZM12.8281 9.91391L12.8333 1.75075C12.8333 1.75075 1.1725 1.749 1.1725 1.75133C1.1725 1.75133 1.16725 9.9145 1.16842 9.9145H4.66667C4.82125 9.9145 4.97 9.97575 5.07908 10.0854L6.99767 12.0081L8.92267 10.0848C8.97685 10.0307 9.04116 9.98785 9.11193 9.95863C9.18269 9.9294 9.25852 9.9144 9.33508 9.9145H12.8281V9.91391ZM3.79167 7.00016C3.5596 7.00016 3.33704 6.90798 3.17295 6.74388C3.00886 6.57979 2.91667 6.35723 2.91667 6.12516C2.91667 5.8931 3.00886 5.67054 3.17295 5.50644C3.33704 5.34235 3.5596 5.25016 3.79167 5.25016C4.02373 5.25016 4.24629 5.34235 4.41039 5.50644C4.57448 5.67054 4.66667 5.8931 4.66667 6.12516C4.66667 6.35723 4.57448 6.57979 4.41039 6.74388C4.24629 6.90798 4.02373 7.00016 3.79167 7.00016ZM7 7.00016C6.76794 7.00016 6.54538 6.90798 6.38128 6.74388C6.21719 6.57979 6.125 6.35723 6.125 6.12516C6.125 5.8931 6.21719 5.67054 6.38128 5.50644C6.54538 5.34235 6.76794 5.25016 7 5.25016C7.23207 5.25016 7.45463 5.34235 7.61872 5.50644C7.78281 5.67054 7.875 5.8931 7.875 6.12516C7.875 6.35723 7.78281 6.57979 7.61872 6.74388C7.45463 6.90798 7.23207 7.00016 7 7.00016ZM10.2083 7.00016C9.97627 7.00016 9.75371 6.90798 9.58962 6.74388C9.42552 6.57979 9.33333 6.35723 9.33333 6.12516C9.33333 5.8931 9.42552 5.67054 9.58962 5.50644C9.75371 5.34235 9.97627 5.25016 10.2083 5.25016C10.4404 5.25016 10.663 5.34235 10.8271 5.50644C10.9911 5.67054 11.0833 5.8931 11.0833 6.12516C11.0833 6.35723 10.9911 6.57979 10.8271 6.74388C10.663 6.90798 10.4404 7.00016 10.2083 7.00016Z" fill="#9F9689"/>
</g>
<defs>
<clipPath id="clip0_471_17391">
<rect width="14" height="14" fill="white"/>
</clipPath>
</defs>
</svg>
