<svg width="14" height="14" viewBox="0 0 14 14" fill="none" xmlns="http://www.w3.org/2000/svg">
<path d="M10.5 12.8152H2.74616C1.87386 12.8152 1.16309 12.1045 1.16309 11.2322V6.93523C1.16309 6.06292 1.87386 5.35215 2.74616 5.35215H4.35078C4.53385 5.27677 5.55693 4.77061 5.65385 2.05677C5.65385 1.60446 5.9877 1.25984 6.48309 1.19523C7.28001 1.08754 8.31385 1.626 8.59385 2.59523C8.84155 3.47831 8.59385 4.65215 8.40001 5.35215H11.2539C11.7169 5.35215 12.1585 5.55677 12.46 5.91215C12.7615 6.26754 12.8908 6.74138 12.8046 7.20446L12.0508 11.5014C11.9323 12.266 11.2754 12.8152 10.5 12.8152ZM2.74616 6.22446C2.3477 6.22446 2.02462 6.54754 2.02462 6.946V11.2429C2.02462 11.6414 2.3477 11.9645 2.74616 11.9645H10.5C10.8554 11.9645 11.1462 11.7168 11.2108 11.3722L11.9646 7.07523C11.9969 6.85985 11.9431 6.65523 11.8031 6.48292C11.6631 6.32138 11.4692 6.22446 11.2539 6.22446H7.8077C7.6677 6.22446 7.53847 6.15984 7.45232 6.04138C7.37693 5.92292 7.35539 5.77215 7.39847 5.64292C7.58155 5.15831 8.00155 3.70446 7.75386 2.84292C7.63539 2.43369 7.26924 2.186 6.9677 2.09984C6.72001 2.02446 6.5477 2.05677 6.49385 2.07831V2.08908C6.37539 5.76138 4.66309 6.18138 4.46924 6.21369C4.4477 6.21369 4.41539 6.22446 4.39385 6.22446H2.74616Z" fill="#9F9689"/>
<path d="M2.74618 5.79395C2.1108 5.79395 1.59387 6.31087 1.59387 6.94625V11.2432C1.59387 11.8786 2.1108 12.3955 2.74618 12.3955H3.73695V5.79395H2.74618Z" fill="#9F9689"/>
<path d="M3.73693 12.8156H2.74616C1.87386 12.8156 1.16309 12.1048 1.16309 11.2325V6.93562C1.16309 6.06331 1.87386 5.35254 2.74616 5.35254H3.73693C3.97386 5.35254 4.1677 5.54639 4.1677 5.78331V12.3848C4.1677 12.6218 3.97386 12.8156 3.73693 12.8156ZM2.74616 6.22485C2.3477 6.22485 2.02462 6.54792 2.02462 6.94639V11.2433C2.02462 11.6418 2.3477 11.9648 2.74616 11.9648H3.30616V6.22485H2.74616Z" fill="#9F9689"/>
</svg>
