<svg width="16" height="11" viewBox="0 0 16 11" fill="none" xmlns="http://www.w3.org/2000/svg">
<g clip-path="url(#clip0_488_12431)">
<path d="M15.3878 0.939453H5.12694C4.78885 0.939453 4.51477 1.21198 4.51477 1.54815C4.51477 1.88432 4.78885 2.15684 5.12694 2.15684H15.3878C15.7259 2.15684 16 1.88432 16 1.54815C16 1.21198 15.7259 0.939453 15.3878 0.939453Z" fill="#9F9689"/>
<path d="M13.2243 4.39648H5.12694C4.78885 4.39648 4.51477 4.66901 4.51477 5.00518C4.51477 5.34135 4.78885 5.61388 5.12694 5.61388H13.2243C13.5624 5.61388 13.8365 5.34135 13.8365 5.00518C13.8365 4.66901 13.5624 4.39648 13.2243 4.39648Z" fill="#9F9689"/>
<path d="M11.0609 7.85352H5.12694C4.78885 7.85352 4.51477 8.12604 4.51477 8.46221C4.51477 8.79838 4.78885 9.07091 5.12694 9.07091H11.0609C11.399 9.07091 11.673 8.79838 11.673 8.46221C11.673 8.12604 11.399 7.85352 11.0609 7.85352Z" fill="#9F9689"/>
<path d="M2.11481 10.0939L2.11481 0.438264C2.11481 0.196219 1.92015 0 1.68002 0C1.4399 0 1.24524 0.196219 1.24524 0.438264L1.24524 10.0939C1.24524 10.336 1.4399 10.5321 1.68002 10.5321C1.92015 10.5321 2.11481 10.336 2.11481 10.0939Z" fill="#9F9689"/>
<path d="M0.132652 9.57558L1.3624 10.8053C1.53355 10.9765 1.80995 10.9776 1.97974 10.8078C2.14953 10.638 2.14843 10.3616 1.97728 10.1905L0.747527 8.96071C0.576376 8.78956 0.299983 8.78845 0.13019 8.95825C-0.0396034 9.12804 -0.0384998 9.40443 0.132652 9.57558Z" fill="#9F9689"/>
<path d="M2.60716 8.96523L1.3774 10.195C1.20625 10.3661 1.20515 10.6425 1.37494 10.8123C1.54474 10.9821 1.82113 10.981 1.99228 10.8099L3.22203 9.58011C3.39318 9.40896 3.39429 9.13256 3.22449 8.96277C3.0547 8.79298 2.77831 8.79408 2.60716 8.96523Z" fill="#9F9689"/>
</g>
<defs>
<clipPath id="clip0_488_12431">
<rect width="16" height="10.9357" fill="white"/>
</clipPath>
</defs>
</svg>
