<svg width="14" height="14" viewBox="0 0 14 14" fill="none" xmlns="http://www.w3.org/2000/svg">
<path d="M12.0907 13.003C11.8095 13.003 11.5407 12.8373 11.422 12.5623L11.4204 12.5608L9.83446 8.86546H4.22664L2.57352 12.5717C2.40946 12.9389 1.97977 13.103 1.61258 12.9389C1.24539 12.7748 1.08133 12.3451 1.24539 11.978L5.76102 1.85921C5.91883 1.50452 6.20633 1.23265 6.56883 1.09359C6.93133 0.954525 7.32664 0.965462 7.68133 1.12327C8.01571 1.27327 8.28133 1.54046 8.42508 1.87796L12.7595 11.9873C12.9173 12.3561 12.747 12.7842 12.3782 12.942C12.2845 12.9826 12.1876 13.003 12.0907 13.003ZM4.87664 7.41077H9.21571L7.09071 2.45296L4.87664 7.41077Z" fill="#9F9689"/>
</svg>
